<svg id="Layer_3" data-name="Layer 3" xmlns="http://www.w3.org/2000/svg" viewBox="0 0 1196.22 595.17"><defs><style>.cls-1{fill:#4c374b;stroke:#000;stroke-miterlimit:10;}</style></defs><title>Artboard 4</title><path class="cls-1" d="M1186.92,595.6l4.5-584.25L940.3,10.68l-1.25,110.25,251.53-.5-.07,8.25-251.46.5-2.41,224h250l-.07,8.25-250.13-1L936,468.18l249.8,1.25-.06,7.51-249.66-1.76-.49,108,249.24,1.5,0,7.25-249.28-1.25v4.25H928.3l4.5-583-300.5.75-.5,109.5,300-1.5.1,8.59-299.85.66-.25,108,299.26-.5-.06,8-299.45.75.09,105,298.56-2.24-.06,8.25-298.84.5v110l298,1.26-.06,7.49H630.8l.25,107.25,297.34.25-.09,7.5-297.5-.25v3.75h-7.25l1-582.75-302.75-3,1.75,109.5,300.75,3.25.05,8.5-301-3,1.26,108.74,299.61,2.51,0,8.25-299.1-2.26-.25,104.75L624,350.84v7.35L324.8,355.93l.5,111.25,298.25,1.25.21,7.75h-298l.75,107.75,297,.5,0,7.25-297.25-.25v3.5l-7.52-.33-4.5-586L9.05,5.93l1.25,110.5,304.75,3.75.25,7.5L9.47,124.42l1.58,227,305.4,1.74.05,7L11.3,358.43l1.09,110.75,305-.25,0,7.5-304.66-.75.91,110.75,304.67-1.76.07,8.77-304.4-1.51-.09,3H6.3L1.24-.57,314.8.68V-.57h7.75v2.5l302,2.5V.93l7.34.17.25,3.84L933.55,3.18V-.57h7.5V1.35L1199.44-.57l-6.64,595.5Z"/></svg>