<svg id="Layer_4" data-name="Layer 4" xmlns="http://www.w3.org/2000/svg" viewBox="0 0 1920 1080"><defs><style>.cls-1{fill:none;stroke:#000;stroke-miterlimit:10;}</style></defs><title>shelf1</title><path class="cls-1" d="M577.21,776.65l-4.88-595.56,311,1.89v-5h9v3l301,5.5v-3l9-.5v3.5h300V182h8.5v4.5l250.25-1,.12-3.46,9.63-.1L1763.54,776h-8l-.16-2-248-.12v-9l248,1.13,1.12-106.5L1508,657.86v-8.5l248.47,3.13,1.37-110.5-249.26-1.51v-6h249.76L1760,310l-250.22.5,0-7L1760,302l1.38-108.51h-251l-3.5,583.17h-9v-2.17l-295.5-.5v-7.5l295.62-1-.12-106.5-295.5-1.5v-8l295.5,1.5.5-111-296-.5v-7l296.12-1,1.38-104-297.5.5v-8l298-.5.5-108.5-298,.5-.5-8,298,1.5.5-111h-298.5V774.65h-8.5l.5-2.17-300.12,1.24.31-7.51,298.31.27,1-108.5-300.32-1v-7.5l298.82-.5.5-111-300,.5v-7l301.51.5-1-102-301.15-2.49V419l300.15,1V313.48L891.55,309v-8l302.83,3-.5-109-303-5,3.33,587.34h-7l-.33-2.34-302.09.38v-7.5l302-1.37.63-108h-304V649l303.25,1-.25-108.5-303.92,1-.09-8.5,304.13.5L884.88,310l-305-3.5V297l304.75,4.5L884.38,190l-305.5-1,6.33,587.67Z"/><polyline class="cls-1" points="1770.88 777.02 1770.88 181.92 572.33 181.09 572.68 777.02 1775 777.02"/></svg>
