<svg id="Layer_4" data-name="Layer 4" xmlns="http://www.w3.org/2000/svg" viewBox="0 0 1199.82 600.98"><defs><style>.cls-1{fill:none;stroke:#000;stroke-miterlimit:10;}</style></defs><title>shelf</title><path class="cls-1" d="M5.88,600.67,1,5.11,312,7V2h9V5l301,5.5v-3l9-.5v3.5H931V6h8.5v4.5l250.25-1,.13-3.46,9.63-.1L1192.21,600h-8l-.17-2-247.94-.13v-9L1184,590l1.13-106.49L936.7,481.87v-8.5l248.47,3.14,1.37-110.5L937.29,364.5v-6H1187l1.63-224.5-250.22.5,0-7L1188.67,126,1190,17.5H939l-3.5,583.17h-9V598.5L631,598v-7.5l295.63-1L926.54,483,631,481.5v-8l295.5,1.5.5-111-296-.5v-7l296.13-1,1.37-104L631,252v-8l298-.5.5-108.5-298,.5-.5-8L929,129l.5-111H631V598.67h-8l0-2.17-300.11,1.23.3-7.5,298.31.27,1-108.5-300.31-1v-7.5L621,473l.5-111-300,.5v-7L623,356l-1-102L320.9,251.5V243L621,244V137.5L320.22,133v-8L623,128l-.5-109-303-5,3.34,587.33h-7l-.34-2.33-301.73.46V592l301.61-1.45.62-108H12V473l303.25,1L315,365.5l-303.91,1L11,358l304.13.5L313.54,134l-305-3.5V121l304.75,4.5L313,14,7.54,13l6.34,587.67Z"/></svg>
