<svg xmlns="http://www.w3.org/2000/svg" viewBox="0 0 1199.03 594.97"><defs><style>.cls-1{fill:none;}.cls-1,.cls-2{stroke:#000;stroke-miterlimit:10;}.cls-2{fill:#fff;}</style></defs><title>shelf</title><g id="Layer_2" data-name="Layer 2"><path class="cls-1" d="M270.76,352.4v-11s1-5.69,1.94,0l-.38,12.12h3.38l1.75-17.06s8,12.44,10.06,13.13,8.81,1.31,8.81,1.31A18.59,18.59,0,0,0,298.2,345s-4.44-2-4.44-2.28A7.06,7.06,0,0,1,294,339c.69-1.87,2.12-14.12.62-20.81s-4.87-14.56-9.37-17.44-10.88-6.81-17.94-7.06-16.44,0-16.44,0-14.18,0-18.43,14.06-3.25,45.81-3.25,45.81h12.75L243,342.9s1-3.19,2.94-4.5l-.81,15.12h4.18L251,340.34s.88-3.13,2-3.13,4.56,8.75,4.13,16.31l13.68.31Z"/><path class="cls-1" d="M294.07,350.67v-5.83s-3.93-.25-3.93-.82-2.24-27.8-9.25-37.68S259,293.63,260.32,293.9"/><path class="cls-1" d="M269.26,326.73s-14.17,1.92-14.17-4.46,1-12.7,3.17-16,7.83-4.33,10.33-2"/><path class="cls-1" d="M153.59,346.57h-6.33v2.66l2.5,1.44,2.33,3h44.84v-1.9a5.66,5.66,0,0,0,4.16-5.16Z"/><path class="cls-1" d="M153.59,346.57l-8.33-31.84A4.36,4.36,0,0,0,143,312.9s-1.33-8.42-.83-11.33c0,0,36.5-2.5,61.5,1.75v10s-2.84.41-3.59,2.75-6.83,30.16-6.83,30.16Z"/><path class="cls-1" d="M155.08,300.84s-.49-6.77,3.93-6.36c0,0-.33-4.25,3.25-6s4.42,4.42,4.42,4.42-7.84-1.75-3,7.58h3.66s-1.5-6.58,0-7.58c0,0,0-6.5,2.34-5.33a3.21,3.21,0,0,1,1.66,3.66s2.64,1.17,1.53,8.67c0,0,1.31-5.83,3.89-5.42s3.75,5.51,3.58,6.62c0,0-.41-8.12,3-8.37s5,4.81,4.09,6.75c0,0,2.83,0,3.41.92s4.5.92,4.5.92-1.25-5.5-3.75-1.75c0,0,3.34-6.25-.25-8.09s-5.91-4.25-7.66.34c0,0-3.67,1.41-3.59-.67,0,0-1.38-8.12-7.22-.42,0,0-1.94-3.08-1.53-5.08s.25-3.58,2.17-2.75a3.12,3.12,0,0,1,1.7,3.08s.88-2.33,1.88-1.91-.41-3.34,1.09-3.25,4.08.83,3.08,4.16c0,0,.92,2.84-.58,4.5,0,0,.91-5.08,2.66-5.08s6.84,3.44,4.87,5.36"/><path class="cls-1" d="M185,284.93s3.06-6.11,1.73-6.61-1.92,0-1.92,0-2.8-1.69-3.75.66c0,0-1.33-5.5-3.41-3.75,0,0,.41-4.33-1.09-4.33s-1.38,4.25-1.38,4.25-1.81-1.58-2.34-.25c0,0-1.28-2.25-2.53.42,0,0-1.83-1.34-1.75.33,0,0-2.5-2.33-2.5,1.17l2.25,2.41s-2.08-2.41-2.91-1.71-2.34,4.3-1.42,4.8a27.93,27.93,0,0,0,4,1.25s1.17-5.42,3.42-4,3.66.75,2.91,3.08c0,0-3.49-1.63-2.78,5.19l-4-.69s1.51-1.9,0-3-6.91-3.08-5.08,3.33"/><path class="cls-1" d="M120.76,352.15s1.25-3.25,2.38-3.25,3.75-1.63,3.75-2.88-70.13-1.87-70.13-1.87a7.64,7.64,0,0,0,2.75,4,16.7,16.7,0,0,1,3.88,4Z"/><path class="cls-1" d="M116.64,344.15l9.25-38.75s-.38-1.13,1-1.13,2-13.2,2-13.2c6.66-2.85-55.59-8.54-77.88-3.23,0,0-1.79,11.63.88,13,4.2,2.15,14.17,43.23,13.5,43.31Z"/><path class="cls-1" d="M114.2,287.51l2.69-41.11s4-32.13,2.12-42-5-13.88-10.5-14.38-6.87,3.75-6.87,3.75-3.13,5.13-2.5,32.13-1.63,59.75-1.63,59.75H93.89l-1-114.13a60.77,60.77,0,0,0-6.5-32.37c-8.5-16.25-14.5,12.62-14.5,12.62s-.38,17,0,22.75c.22,3.42-.57,40-.55,70.38,0,20.75.4,38.56,1.75,40.75H64.43s-2.67-34.25-6-44.88-5.63-37-5.63-37,1-10.87,5.88-10.87c0,0,11.74-.25,12.81,28.13"/><path class="cls-1" d="M101.64,193.77a8,8,0,0,0-8.59-3.37"/><path class="cls-1" d="M1125.43,353.9l1.33-4.33s4.83-.67,5-2.84,3.67-28.83,3.67-28.83-1-.83-5-1-26.17,0-26.17,0,.67,3.33,0,3.5,15.58-.33,15.58-.33l.75,33.83h-41.83l-1.17-30.67s.17-1.33,2.5-1.33,24.17-1.5,24.17-1.5"/><path class="cls-1" d="M1126.09,316.59,1137,295.65a24.24,24.24,0,0,0,3.44-10.75,82.76,82.76,0,0,0,0-9,19.37,19.37,0,0,0,1.19-5.69c0-2.56,7.18-17.37,7.18-17.37l7.38-16a166.23,166.23,0,0,0,2.25-17.63c.5-8.31-1.25-8.56-1.25-8.56s-1.94-2.38-2.69,5.19-1.12,10.37-1.12,10.37-.75,7.25-1.19,8.94S1148,245,1148,245s-5.75,12.31-6.5,16.13a20.23,20.23,0,0,1-3.13,7.06,27.8,27.8,0,0,0-3.93,6.37c-1.44,3.44-3.69,3.82-3.69,3.82l-4.06,4.81s-3.25,3.94-3.82,7.06,1.5.19-2.12,25.94h-13.63a38.36,38.36,0,0,1,1.44-4.19,6.15,6.15,0,0,0,.44-2s.87-5,1.56-5.94.5-5.68.5-5.68.31-6.63,3.88-10.82a41.35,41.35,0,0,1,.37-5.43c.31-1.13,3-7.88,3-7.88a17.94,17.94,0,0,0,1.69-6.81,46.85,46.85,0,0,1,.5-9.75c.69-3.56,2-7.19,2.25-7.19s1.75-.44,1.19,2.75-1.07,6.44-1.07,6.44l.19,7.56s-.5,7.38-1.19,8.81-.56,5.19-.56,5.19.06,7.69.5,9.13a15.43,15.43,0,0,0,1.1,2.62"/><path class="cls-1" d="M1093.26,320.65s-.56-1.81,1.06-1.5,0-2.94,0-2.94a.93.93,0,0,1,1.44-.31c.88.69.38-2.94.38-2.94s-1.27-.25-1.42-1.12-2.33-1.75-2.33-1.75a1.13,1.13,0,0,1-.32-1.38c.32-1-4.37-2.31-5.06-4.37s-1.69-.75-1.69-3.57a6.46,6.46,0,0,0-4.18-2.37s-1.32-1.38-1.25-2-1.94-.69-1.94-.69h-1.31s.1-2,.95-2-1.52-2.37.48-4.56c0,0,.32-1.94-1.43-1.94s1.93-1.44,2.31-.37,2.19.62,2.12,1.06-.18,4.44.38,4.12,2.37,1.5,1.87,2.25,3,3.19,3.69,2.5-.12-3.68-.12-3.68-1.13-4.32-4.13-5.44.13-1.2.13-1.2,1.12-2.11-2.5-3.86-3.82-1.13-3.82-1.13l-2.06-1.12s-4.25,1.75-4.25.62,1.94-2.31,1.94-2.31h4.44s1,1.44,1.81.62a12.49,12.49,0,0,0,1.69-2.62s2.83-1.31,3.13-.75.62-2.25,1.43-2.25,4.25-1,4.69,1,2.06.44,2.06.44,1.44.87,1.12,1.5a10.75,10.75,0,0,0-.56,2.12s2.75-1.06,2.75-.31a7.19,7.19,0,0,1-.81,2.25l1.19.56s3.81-1.94,3.93-2.62a10.33,10.33,0,0,0,0-2.07s.69-.87,1.25-.75,1.32-2.56,3.44-1.25-2.06,5.07-2.06,5.07l-5.44,5.06s.88.12.31.69-2.25,1.87-2.25,1.87-.68,3.25,0,3.31-.43,3.5-.43,3.5,1.43.57,1.43,1.25,1.44,1.82,1.07,2.69,1.18.56,1.18.56,1.63,1.07,1.38,1.75,2.06,2.32,2.06,2.32,2.19,2.81,1.75,4.06.38,3.5.38,3.5.93,4.56-.75,5.12.87,1.56.87,1.56h.63"/><path class="cls-1" d="M1068.59,353.07a1.5,1.5,0,0,1,1.67-.86c1.19.25,1.44-3.37,1.44-3.37H1035v4.23Z"/><path class="cls-1" d="M1068.07,348.15l6.19-25.81s1.19-1.88,2.5-1.69l.83-10.25s-36.64-2.44-42.33,0l-.31,37.75Z"/><path class="cls-1" d="M1064.82,309.72s1.88-1.38,1.57-2.38.66-7,0-7.19-.37-5.56-3.43-6.19-5.5-.69-5.44.56c0,0-3.12,5.5-2.18,7.32l.12,2.62s4.44.75,4.94,4.25l-11.81-.06s2.31-4.31,5.06-3.94,1.31-.19,1.31-.19l-1.94-.68s2.75-9.88-3.62-10.94-6.88,12.69-6.88,12.69l-1.25,3.06s-4.75-3.37-5.75,1.63"/><path class="cls-1" d="M1057.57,294.52s1.13-16.56.13-19.68-1.18-10.94-6.59-11-6.1,7.93-6.1,7.93l-.65,24.63s0-29.88-4.22-30.88-4.57,1.63-4.57,1.63l-.31,43.25"/><polygon class="cls-2" points="948.93 353.07 948.93 249.9 953.76 246.73 1035.26 247.73 1034.95 353.07 954.1 353.07 948.93 353.07 948.93 249.9 953.76 246.73 954.1 353.07 948.93 353.07"/><path class="cls-2" d="M669.93,350.57l-3.17-62,11-1.5s38.17-4.17,56.5,0l6.84,64.46H669.59Z"/><polygon class="cls-2" points="764.6 350.73 757.6 276.73 826.76 275.9 837.26 350.73 764.6 350.73"/><polygon class="cls-2" points="761.26 350.73 755.43 281.07 757.6 276.73 764.6 350.73 761.26 350.73"/><path class="cls-2" d="M845.26,281.07l11,69.66,71.13.17-13.8-73.17S847.93,278.4,845.26,281.07Z"/><polygon class="cls-2" points="843.43 283.57 845.26 281.07 856.26 350.73 853.76 350.73 843.43 283.57"/><polygon class="cls-2" points="534.43 281.07 600.6 282.23 600.6 351.36 532.26 351.25 534.43 281.07"/><path class="cls-2" d="M444.09,278.57l12.34-1s45.66-1.17,55.16,0l-2.33,73.79-72-.27Z"/><polygon class="cls-2" points="404.93 286.73 404.37 292.85 399.09 351.03 340.26 350.93 348.93 286.73 404.93 286.73"/><polygon class="cls-2" points="406.6 293.9 401.26 351.03 399.09 351.03 404.37 292.85 406.6 293.9"/><path d="M361.14,299.13l1.72.05-.09,3.27,2,.06.09-3.27,1.72.05-.23,8.56-1.73-.05.11-3.8-2-.06-.1,3.8-1.73-.05Z"/><path d="M372.82,299.46l0,1.41-1.87-.05-.2,7.15-1.73-.05.2-7.15-1.87,0,0-1.41Z"/><path d="M373.6,299.48l2.57.07,1.05,6.08h0l1.41-6,2.55.07-.24,8.56-1.58,0,.19-6.84h0l-1.72,6.79-1.34,0-1.33-6.88h0l-.19,6.83-1.58,0Z"/><path d="M382.2,308.28l.24-8.56,1.73,0-.2,7.15L387,307l0,1.42Z"/><path d="M454,296.22c0-.64-.29-1.44-1-1.44-.84,0-1.18.86-1.19,3s.19,3.36,1.18,3.36a1.25,1.25,0,0,0,1.07-1.36v-.88H453v-1.27h2.79v4.61h-1.27v-.79h0a1.91,1.91,0,0,1-1.8.95c-2.12,0-2.54-1.58-2.53-4.55s.68-4.35,2.88-4.34c1.9,0,2.67,1,2.66,2.71Z"/><path d="M461.69,293.69v1.42h-3.05v2h2.88v1.42h-2.88v2.3h3.18v1.42h-4.91l0-8.57Z"/><path d="M464.05,299.59v.25c0,.8.23,1.32,1.14,1.32a1,1,0,0,0,1-1.05c0-.78-.39-1.07-1.53-1.47-1.53-.53-2.24-1.17-2.24-2.59a2.36,2.36,0,0,1,2.66-2.52c1.53,0,2.65.67,2.64,2.31v.24H466.1c0-.81-.27-1.27-.93-1.28a.89.89,0,0,0-1,1c0,.53.15.85.89,1.16l1.33.58a2.19,2.19,0,0,1,1.62,2.27c0,1.81-1.11,2.63-3,2.62s-2.72-.92-2.72-2.5v-.35Z"/><path d="M473.91,293.72v1.42H472l0,7.15H470.3v-7.15h-1.87v-1.41Z"/><path d="M475.67,293.72h2.13l2.25,8.57h-1.8l-.39-1.81h-2.28l-.4,1.81h-1.8Zm.21,5.34h1.68l-.82-3.86h0Z"/><path d="M480.65,302.3l0-8.56h1.73l0,7.15h3.06v1.42Z"/><path d="M490.35,293.76v1.41h-1.87l0,7.15h-1.72v-7.15h-1.87v-1.41Z"/><path d="M450.2,308.07h3a2.27,2.27,0,0,1,2.34,2.58c0,1.77-1.09,2.57-2.72,2.57h-.93v3.41h-1.73Zm1.72,3.87h.76c.69,0,1.16-.41,1.16-1.28s-.34-1.32-1.2-1.33h-.72Z"/><path d="M456.43,308.08h3.19a2,2,0,0,1,2.27,2.21c0,1.14-.46,1.91-1.43,2.11v0c1.17.16,1.35.81,1.37,2.62,0,.9.06,1.37.38,1.54v.07h-1.87a1.62,1.62,0,0,1-.21-.9l-.05-1.64c0-.67-.32-1.08-1-1.08h-.92v3.62h-1.72Zm1.71,3.75h.72c.83,0,1.3-.36,1.3-1.28a1.06,1.06,0,0,0-1.19-1.19h-.82Z"/><path d="M463.16,316.66l0-8.56h1.73l0,8.56Z"/><path d="M468.18,308.11l2.08,5.87h0l0-5.87h1.58l0,8.56h-2l-2.09-6h0v6h-1.59l0-8.57Z"/><path d="M476.73,311c0-1.25-.25-1.79-1-1.79s-1.09.87-1.09,3.29c0,2.59.35,3.06,1.09,3.06s1.09-.32,1.09-2.16h1.73c0,1.85-.47,3.44-2.73,3.44-2.59,0-2.91-1.86-2.91-4.46s.34-4.45,2.93-4.44,2.64,1.81,2.64,3.06Z"/><path d="M479.59,316.7l0-8.57h1.73l0,8.56Z"/><path d="M482.62,308.14h2.89c1.42,0,2.44.53,2.43,2.17a1.79,1.79,0,0,1-1.3,1.87v0a1.82,1.82,0,0,1,1.56,2c0,1.34-.67,2.5-2.68,2.5H482.6Zm1.72,3.52h.49c.95,0,1.38-.32,1.38-1.13s-.39-1.11-1.24-1.11h-.62Zm0,3.78H485c.83,0,1.4-.3,1.4-1.29s-.56-1.29-1.32-1.29h-.74Z"/><path d="M489.27,316.72l0-8.57H491l0,7.15h3.06v1.42Z"/><path d="M499.63,308.18v1.41h-3.06v2h2.88V313h-2.87v2.3h3.18v1.41h-4.91l0-8.56Z"/><path d="M502,314.07v.25c0,.81.22,1.32,1.14,1.33a1,1,0,0,0,1-1.06c0-.78-.39-1.07-1.53-1.46-1.54-.53-2.24-1.17-2.24-2.6a2.34,2.34,0,0,1,2.66-2.51c1.53,0,2.65.66,2.64,2.31v.24h-1.65c0-.8-.28-1.27-.94-1.27a.88.88,0,0,0-1,1c0,.53.15.85.88,1.17l1.33.58A2.18,2.18,0,0,1,506,314.3c0,1.81-1.11,2.62-3,2.62s-2.72-.92-2.72-2.5v-.35Z"/><path d="M543.06,305.24,543,311.4c0,1.83-.87,2.56-2.62,2.53s-2.25-1.21-2.23-2.55V311l1.58,0v.26c0,.91.12,1.35.74,1.36s.78-.42.79-1.33l.11-6.12Z"/><path d="M545.86,305.29l2.13,0,2.12,8.6-1.8,0-.37-1.82-2.28,0-.42,1.8-1.8,0Zm.13,5.34,1.68,0-.76-3.86h0Z"/><path d="M552,305.4l1.1,6.35h0l1.38-6.31,1.79,0L554.21,314,552,314l-1.81-8.59Z"/><path d="M558.19,305.51l2.13,0,2.12,8.6-1.8,0-.36-1.82-2.28,0-.43,1.8-1.8,0Zm.13,5.34,1.68,0-.76-3.87h0Z"/><path d="M564.48,311.51v.25c0,.8.2,1.32,1.11,1.34a1,1,0,0,0,1-1c0-.78-.37-1.07-1.51-1.49-1.52-.55-2.22-1.2-2.19-2.63a2.35,2.35,0,0,1,2.69-2.47c1.54,0,2.64.71,2.61,2.35v.24l-1.66,0c0-.8-.25-1.28-.91-1.29a.89.89,0,0,0-1,1c0,.53.14.86.86,1.18l1.33.6a2.2,2.2,0,0,1,1.59,2.29c0,1.81-1.15,2.61-3,2.58s-2.71-1-2.68-2.54v-.35Z"/><path d="M573,308.66c0-1.25-.22-1.79-1-1.81s-1.1.86-1.14,3.28c0,2.59.31,3.07,1.05,3.08s1.08-.3,1.12-2.15l1.72,0c0,1.85-.51,3.43-2.78,3.39-2.59,0-2.88-1.89-2.83-4.5s.4-4.44,3-4.39,2.62,1.85,2.59,3.1Z"/><path d="M575.86,305.82l3.19.05a2,2,0,0,1,2.24,2.25c0,1.14-.49,1.9-1.46,2.09v0c1.17.18,1.34.83,1.33,2.64,0,.9,0,1.37.36,1.54v.07l-1.87,0a1.56,1.56,0,0,1-.2-.9l0-1.65c0-.67-.31-1.08-1-1.09l-.93,0-.06,3.62-1.73,0Zm1.66,3.77h.72c.83,0,1.31-.33,1.32-1.26a1.07,1.07,0,0,0-1.18-1.21h-.81Z"/><path d="M582.47,314.5l.15-8.56,1.72,0-.15,8.56Z"/><path d="M585.63,306l3,.05a2.28,2.28,0,0,1,2.31,2.61c0,1.78-1.14,2.56-2.77,2.53h-.92l-.06,3.41-1.73,0Zm1.66,3.9.77,0c.68,0,1.15-.39,1.17-1.27s-.31-1.32-1.18-1.34h-.72Z"/><path d="M596.87,306.19l0,1.41-1.87,0-.12,7.15-1.73,0,.13-7.15-1.87,0,0-1.42Z"/><path d="M688.87,303.69l1.54,6.26h0l.94-6.39,1.78-.09-1.51,8.65-2.22.12L687,303.79Z"/><path d="M694.34,312l-.45-8.55,1.73-.09.45,8.55Z"/><path d="M697,303.27l2.83-.15c2.4-.13,2.91,1.49,3.05,4,.15,3-.42,4.43-2.71,4.55l-2.72.14Zm2.11,7.19.77,0c1.2-.06,1.39-.83,1.27-3.16-.1-1.94-.31-2.92-1.62-2.85l-.73,0Z"/><path d="M708.56,302.66l.07,1.41-3,.16.1,2,2.88-.15.07,1.41-2.87.15.12,2.3,3.17-.17.08,1.42-4.9.25-.45-8.55Z"/><path d="M712.26,302.3c2.59-.14,3,1.69,3.15,4.29s-.09,4.46-2.68,4.6-3-1.7-3.14-4.3S709.68,302.43,712.26,302.3Zm.4,7.62c1-.06,1.14-.94,1-3.24s-.33-3.17-1.35-3.11-1.14.95-1,3.23S711.65,310,712.66,309.92Z"/><path d="M768,283.13l.13,6c0,.85.24,1.48,1,1.46s1-.66,1-1.51l-.13-6,1.73,0,.13,6a2.44,2.44,0,0,1-2.67,2.81c-1.4,0-2.74-.4-2.8-2.69l-.13-6Z"/><path d="M774.32,288.88v.25c0,.8.26,1.31,1.17,1.29a1,1,0,0,0,1-1.08c0-.78-.42-1.06-1.57-1.43-1.55-.49-2.27-1.11-2.3-2.54a2.34,2.34,0,0,1,2.59-2.57c1.54,0,2.67.6,2.7,2.24v.24l-1.65,0c0-.81-.31-1.27-1-1.25a.88.88,0,0,0-1,1c0,.53.18.85.91,1.15l1.35.54a2.19,2.19,0,0,1,1.68,2.23c0,1.81-1,2.65-2.92,2.7s-2.74-.86-2.77-2.44v-.35Z"/><path d="M783.8,282.77l0,1.42-3.05.07,0,2,2.88-.06,0,1.41-2.88.07.06,2.3,3.17-.07,0,1.41-4.9.11-.19-8.56Z"/><path d="M784.79,282.75l3.19-.07a2,2,0,0,1,2.33,2.16,1.89,1.89,0,0,1-1.38,2.14v0c1.17.13,1.37.77,1.43,2.59,0,.89.09,1.36.42,1.52v.07l-1.87,0a1.66,1.66,0,0,1-.23-.89l-.09-1.64c0-.67-.34-1.07-1-1.06l-.92,0,.08,3.62-1.73,0Zm1.81,3.7h.72c.83,0,1.29-.39,1.27-1.31a1.06,1.06,0,0,0-1.23-1.16h-.82Z"/><path d="M794.87,286.92l0,1.41-3.38.08,0-1.42Z"/><path d="M771.44,297.45l0,1.42-3.06.07,0,2,2.88-.06,0,1.41-2.87.07,0,2.3,3.17-.07,0,1.41-4.91.11-.19-8.56Z"/><path d="M772.07,297.44l1.91,0,1.16,2.74,1-2.79,1.88,0-1.89,4.27,2.23,4.28-1.94.05-1.3-2.88L774,306l-1.9,0,2-4.37Z"/><path d="M778.87,297.29l3-.07a2.27,2.27,0,0,1,2.41,2.51,2.39,2.39,0,0,1-2.66,2.64l-.93,0,.08,3.42-1.73,0Zm1.82,3.83.76,0c.69,0,1.14-.43,1.13-1.3s-.37-1.32-1.23-1.3l-.72,0Z"/><path d="M789.88,297l0,1.42-3,.06,0,2,2.88-.07,0,1.42-2.88.06.05,2.31,3.18-.07,0,1.41-4.9.11-.19-8.56Z"/><path d="M790.87,297l3.19-.07a2,2,0,0,1,2.32,2.15,1.88,1.88,0,0,1-1.37,2.15v0c1.17.13,1.37.77,1.43,2.58,0,.9.09,1.37.42,1.53v.07l-1.87,0a1.68,1.68,0,0,1-.23-.89l-.09-1.64c0-.67-.35-1.08-1-1.06l-.92,0,.08,3.62-1.73,0Zm1.81,3.7h.72a1.13,1.13,0,0,0,1.26-1.32,1.06,1.06,0,0,0-1.22-1.16l-.82,0Z"/><path d="M797.81,305.43l-.19-8.56,1.73,0,.19,8.56Z"/><path d="M805.42,296.69l0,1.42-3.06.07.05,2,2.87-.06,0,1.41-2.88.07,0,2.3,3.18-.07,0,1.41-4.91.11-.19-8.56Z"/><path d="M808.39,296.63l2.22,5.81h0l-.13-5.86,1.59,0,.19,8.56-2,0-2.24-5.95h0l.14,6-1.59,0-.19-8.56Z"/><path d="M817,299.33c0-1.25-.29-1.78-1.07-1.77s-1.06.9-1,3.32c.06,2.59.43,3.05,1.18,3s1.07-.35,1-2.2l1.72,0c0,1.85-.38,3.46-2.64,3.51-2.59.05-3-1.79-3-4.39s.23-4.45,2.82-4.51,2.69,1.75,2.72,3Z"/><path d="M824.51,296.27l0,1.41-3.06.07,0,2,2.88-.07,0,1.42-2.87.06,0,2.3,3.17-.07,0,1.42-4.91.11-.19-8.57Z"/><path d="M857.73,303.57l3-.13a2.27,2.27,0,0,1,2.45,2.47c.08,1.77-1,2.62-2.61,2.69l-.92,0,.15,3.41-1.73.08Zm1.89,3.8.77,0c.68,0,1.13-.45,1.09-1.33s-.39-1.3-1.26-1.26l-.71,0Z"/><path d="M864,303.3l1.72-.07.14,3.27,2-.09-.14-3.27,1.72-.07.37,8.55-1.73.08-.16-3.8-2,.09.16,3.8-1.72.07Z"/><path d="M873.34,302.73c2.59-.11,3,1.72,3.1,4.32s-.13,4.46-2.72,4.57-3-1.72-3.1-4.32S870.75,302.84,873.34,302.73Zm.33,7.62c1,0,1.14-.92,1.05-3.22s-.31-3.17-1.33-3.13-1.15.94-1,3.23S872.65,310.4,873.67,310.35Z"/><path d="M882,302.53l.06,1.41-1.87.08.31,7.14-1.73.08-.3-7.14-1.87.08-.06-1.42Z"/><path d="M885.47,302.21c2.59-.11,3,1.72,3.1,4.32s-.13,4.46-2.72,4.57-3-1.72-3.1-4.32S882.88,302.32,885.47,302.21Zm.33,7.62c1,0,1.15-.92,1.05-3.23s-.31-3.16-1.33-3.12-1.14.94-1,3.23S884.78,309.87,885.8,309.83Z"/><path d="M891.05,308l0,.25c0,.81.28,1.31,1.19,1.27a1,1,0,0,0,1-1.1c0-.77-.45-1-1.6-1.39-1.56-.46-2.29-1.07-2.35-2.49a2.35,2.35,0,0,1,2.54-2.63c1.53-.07,2.67.54,2.74,2.18v.24l-1.65.07c0-.8-.33-1.25-1-1.23a.89.89,0,0,0-.94,1c0,.53.19.85.94,1.12l1.35.52a2.19,2.19,0,0,1,1.73,2.2c.08,1.81-1,2.67-2.86,2.75s-2.76-.79-2.83-2.38v-.34Z"/><path d="M895.63,301.94l1.73-.07.14,3.27,2-.09-.14-3.27,1.73-.07.36,8.55-1.72.08-.16-3.8-2,.08.17,3.8-1.73.08Z"/><path d="M905,301.37c2.59-.11,3,1.72,3.11,4.32s-.14,4.46-2.72,4.57-3-1.72-3.11-4.32S902.44,301.48,905,301.37Zm.33,7.62c1,0,1.15-.93,1-3.23s-.3-3.16-1.32-3.12-1.15.94-1.05,3.23S904.33,309,905.35,309Z"/><path d="M909,301.37l3-.13a2.27,2.27,0,0,1,2.46,2.46c.08,1.77-1,2.62-2.61,2.69l-.92,0,.15,3.42-1.73.07Zm1.9,3.79.76,0c.69,0,1.14-.46,1.1-1.33s-.39-1.3-1.26-1.27l-.71,0Z"/><path d="M963.63,286v-8.57h1.73V286Z"/><path d="M966.64,286v-8.56h1.73v7.15h3V286Z"/><path d="M972.19,286v-8.56h1.73v7.15H977V286Z"/><path d="M979.37,277.44v6c0,.85.2,1.48,1,1.48s1-.63,1-1.48v-6h1.73v6a2.45,2.45,0,0,1-2.73,2.76c-1.41,0-2.74-.47-2.74-2.76v-6Z"/><path d="M985.6,283.34v.25c0,.8.22,1.32,1.14,1.32a1,1,0,0,0,1-1.06c0-.78-.4-1.06-1.54-1.46-1.53-.53-2.24-1.16-2.24-2.59a2.35,2.35,0,0,1,2.65-2.52c1.54,0,2.65.66,2.65,2.31v.24h-1.65c0-.8-.28-1.27-.94-1.27a.88.88,0,0,0-1,1c0,.52.16.85.89,1.16l1.33.58a2.19,2.19,0,0,1,1.63,2.27c0,1.81-1.11,2.62-3,2.62s-2.72-.91-2.72-2.5v-.34Z"/><path d="M995.45,277.45v1.42h-1.87V286h-1.72v-7.15H990v-1.42Z"/><path d="M996.2,277.45h3.19a2,2,0,0,1,2.27,2.2c0,1.14-.45,1.91-1.42,2.11v0c1.17.16,1.35.8,1.37,2.61,0,.9.06,1.37.39,1.54V286h-1.87a1.63,1.63,0,0,1-.22-.9l0-1.64c0-.67-.32-1.08-1-1.08h-.92V286h-1.73Zm1.72,3.75h.72c.83,0,1.3-.36,1.3-1.28a1.06,1.06,0,0,0-1.2-1.19h-.82Z"/><path d="M1004.54,277.46h2.13l2.26,8.57h-1.8l-.39-1.81h-2.28l-.4,1.81h-1.8Zm.22,5.34h1.68l-.83-3.85h0Z"/><path d="M1013.89,277.47v1.41H1012V286h-1.73v-7.15h-1.88v-1.42Z"/><path d="M1017.38,277.3c2.59,0,2.91,1.85,2.91,4.45s-.33,4.45-2.92,4.45-2.91-1.85-2.91-4.45S1014.78,277.3,1017.38,277.3Zm0,7.63c1,0,1.19-.88,1.19-3.18s-.17-3.18-1.19-3.18-1.18.89-1.19,3.18S1016.35,284.93,1017.37,284.93Z"/><path d="M1021.31,277.47h3.19a2,2,0,0,1,2.28,2.21c0,1.14-.46,1.91-1.43,2.11v0c1.18.16,1.36.81,1.38,2.62,0,.9.06,1.37.38,1.54V286h-1.87a1.65,1.65,0,0,1-.21-.9l0-1.65c0-.67-.32-1.08-1-1.08H1023V286h-1.72Zm1.73,3.74h.72c.82,0,1.29-.35,1.29-1.28a1.07,1.07,0,0,0-1.2-1.19H1023Z"/><polygon class="cls-2" points="536.76 150.15 531.76 237.4 611.51 239.37 613.01 152.4 536.76 150.15"/><polygon class="cls-2" points="536.76 150.15 533.26 153.4 529.26 239.09 531.76 237.4 536.76 150.15"/><polygon class="cls-2" points="824.76 158.9 895.26 160.4 900.76 237.9 826.01 237.9 824.76 158.9"/><polygon class="cls-2" points="824.76 158.9 821.76 160.4 824.76 237.9 828.51 237.9 824.76 158.9"/><path d="M548.85,175.13l2.13,0,2.1,8.61-1.8,0-.36-1.81-2.28-.05-.43,1.8-1.8,0Zm.12,5.34,1.68,0-.75-3.86h0Z"/><path d="M555.84,175.27l2,5.91h0l.11-5.87,1.59,0-.18,8.56-2,0-2-6h0l-.12,6-1.58,0,.17-8.56Z"/><path d="M560.65,183.93l.17-8.56,1.73,0-.17,8.56Z"/><path d="M563.87,175.43l2.57,0,1.1,6.07h0l1.36-6,2.55.06-.17,8.56-1.58,0,.13-6.84h0l-1.66,6.8-1.34,0-1.39-6.87h0l-.14,6.84-1.58,0Z"/><path d="M574.38,175.64l2.13.05,2.1,8.61-1.8,0-.36-1.82-2.28-.05-.43,1.81-1.8,0Zm.12,5.35,1.68,0-.75-3.87h0Z"/><path d="M583.73,175.83l0,1.42-1.87,0-.15,7.15-1.73,0,.15-7.14-1.87,0,0-1.42Z"/><path d="M584.39,184.41l.18-8.56,1.72,0-.17,8.57Z"/><path d="M590.31,175.8c2.59,0,2.88,1.9,2.83,4.51s-.42,4.44-3,4.39-2.87-1.91-2.82-4.51S587.72,175.75,590.31,175.8Zm-.15,7.62c1,0,1.2-.85,1.25-3.15s-.1-3.18-1.12-3.2-1.21.86-1.25,3.15S589.14,183.4,590.16,183.42Z"/><path d="M596.24,176.09l2,5.9h0l.12-5.86,1.58,0-.17,8.56-2,0-2-6h0l-.12,6-1.59,0,.18-8.56Z"/><polyline class="cls-1" points="1199.51 596.97 1201.03 1 0 1.97 0 597.47"/><path d="M836.88,168.74l2.89,0c1.42,0,2.43.55,2.42,2.19a1.79,1.79,0,0,1-1.31,1.86v0a1.8,1.8,0,0,1,1.54,2c0,1.34-.67,2.5-2.69,2.49l-2.91,0Zm1.7,3.53h.49c.95,0,1.39-.31,1.39-1.11s-.39-1.12-1.24-1.13h-.62Zm0,3.78h.67c.83,0,1.4-.29,1.41-1.28s-.56-1.29-1.31-1.3h-.75Z"/><path d="M845.17,168.8l0,6c0,.85.19,1.49,1,1.49s1-.63,1-1.48l.05-6h1.72l0,6a2.44,2.44,0,0,1-2.76,2.73c-1.4,0-2.73-.48-2.71-2.78l.05-6Z"/><path d="M851.36,174.74V175c0,.81.22,1.32,1.13,1.33a1,1,0,0,0,1-1c0-.78-.39-1.07-1.52-1.47-1.53-.54-2.24-1.18-2.22-2.61a2.34,2.34,0,0,1,2.67-2.5c1.53,0,2.64.68,2.63,2.33v.24l-1.66,0c0-.8-.26-1.27-.92-1.28a.9.9,0,0,0-1,1c0,.53.15.86.88,1.17l1.33.59a2.18,2.18,0,0,1,1.61,2.28c0,1.81-1.12,2.62-3,2.6s-2.72-.93-2.7-2.51v-.35Z"/><path d="M856.26,177.45l.06-8.56h1.73l-.07,8.57Z"/><path d="M861.32,168.93l2,5.88h0l0-5.86H865l-.07,8.56h-2l-2.06-6h0l0,6h-1.58l.06-8.57Z"/><path d="M871,169l0,1.42-3,0,0,2,2.88,0v1.42l-2.88,0,0,2.3,3.18,0v1.42l-4.91,0,.07-8.56Z"/><path d="M873.34,174.91v.25c0,.81.21,1.32,1.12,1.33a1,1,0,0,0,1-1.05c0-.78-.38-1.07-1.52-1.47-1.53-.54-2.23-1.18-2.22-2.61a2.35,2.35,0,0,1,2.67-2.5c1.53,0,2.64.68,2.63,2.33v.24l-1.66,0c0-.8-.26-1.27-.92-1.28a.89.89,0,0,0-1,1c0,.53.15.85.87,1.17l1.33.59a2.2,2.2,0,0,1,1.62,2.28c0,1.81-1.13,2.62-3,2.6s-2.71-.93-2.7-2.51v-.35Z"/><path d="M879.57,175v.25c0,.8.22,1.32,1.13,1.33a1,1,0,0,0,1-1c0-.78-.39-1.07-1.52-1.47-1.53-.54-2.24-1.18-2.23-2.61a2.35,2.35,0,0,1,2.67-2.5c1.54,0,2.65.68,2.64,2.32v.24h-1.66c0-.8-.27-1.27-.92-1.28a.9.9,0,0,0-1,1c0,.53.15.85.88,1.17l1.33.59a2.18,2.18,0,0,1,1.61,2.28c0,1.81-1.12,2.61-3,2.6s-2.72-.93-2.71-2.52V175Z"/></g></svg>
