<svg xmlns="http://www.w3.org/2000/svg" viewBox="0 0 1404 1080"><defs><style>.cls-1{fill:none;}.cls-1,.cls-2{stroke:#000;stroke-miterlimit:10;}.cls-2{fill:#fff;}</style></defs><title>shelf1</title><g id="Layer_2" data-name="Layer 2"><path class="cls-1" d="M362.26,509.4v-11s1-5.69,1.93,0l-.37,12.12h3.37l1.75-17.06s8,12.44,10.07,13.13,8.81,1.31,8.81,1.31a18.43,18.43,0,0,0,1.87-5.91s-4.43-2-4.43-2.28a7.12,7.12,0,0,1,.18-3.75c.69-1.87,2.13-14.12.63-20.81s-4.88-14.56-9.38-17.44-10.87-6.81-17.93-7.06-16.44,0-16.44,0-14.19,0-18.44,14.06-3.25,45.81-3.25,45.81h12.75l1.13-10.62s1-3.19,2.93-4.5l-.81,15.12h4.19l1.69-13.18s.87-3.13,2-3.13,4.56,8.75,4.12,16.31l13.69.31Z"/><path class="cls-1" d="M385.57,507.67v-5.83s-3.94-.25-3.94-.82-2.24-27.8-9.25-37.68-21.89-12.71-20.56-12.44"/><path class="cls-1" d="M360.76,483.73s-14.17,1.92-14.17-4.46,1-12.7,3.17-16,7.83-4.33,10.33-2"/><path class="cls-1" d="M245.09,503.57h-6.33v2.66l2.5,1.44,2.33,3h44.83v-1.9a5.67,5.67,0,0,0,4.17-5.16Z"/><path class="cls-1" d="M245.09,503.57l-8.33-31.84a4.42,4.42,0,0,0-2.25-1.83s-1.34-8.42-.84-11.33c0,0,36.5-2.5,61.5,1.75v10s-2.83.41-3.58,2.75-6.83,30.16-6.83,30.16Z"/><path class="cls-1" d="M246.57,457.84s-.48-6.77,3.94-6.36c0,0-.34-4.25,3.25-6s4.41,4.42,4.41,4.42-7.83-1.75-3,7.58h3.67s-1.5-6.58,0-7.58c0,0,0-6.5,2.33-5.33a3.21,3.21,0,0,1,1.67,3.66s2.64,1.17,1.53,8.67c0,0,1.3-5.83,3.89-5.42s3.74,5.51,3.57,6.62c0,0-.41-8.12,3-8.37s5,4.81,4.08,6.75c0,0,2.84,0,3.42.92s4.5.92,4.5.92-1.25-5.5-3.75-1.75c0,0,3.33-6.25-.25-8.09s-5.92-4.25-7.67.34c0,0-3.66,1.41-3.58-.67,0,0-1.39-8.12-7.22-.42,0,0-1.95-3.08-1.53-5.08s.25-3.58,2.17-2.75a3.14,3.14,0,0,1,1.7,3.08s.88-2.33,1.88-1.91-.42-3.34,1.08-3.25,4.09.83,3.09,4.16c0,0,.91,2.84-.59,4.5,0,0,.92-5.08,2.67-5.08s6.83,3.44,4.86,5.36"/><path class="cls-1" d="M276.53,441.93s3.06-6.11,1.73-6.61-1.92,0-1.92,0-2.81-1.69-3.75.66c0,0-1.33-5.5-3.42-3.75,0,0,.42-4.33-1.08-4.33s-1.38,4.25-1.38,4.25-1.82-1.58-2.34-.25c0,0-1.28-2.25-2.53.42,0,0-1.83-1.34-1.75.33,0,0-2.5-2.33-2.5,1.17l2.25,2.41s-2.08-2.41-2.92-1.71-2.33,4.3-1.41,4.8a27.54,27.54,0,0,0,4,1.25s1.16-5.42,3.41-4,3.67.75,2.92,3.08c0,0-3.5-1.63-2.79,5.19l-4-.69s1.51-1.9,0-3-6.92-3.08-5.08,3.33"/><path class="cls-1" d="M212.26,509.15s1.25-3.25,2.37-3.25,3.75-1.63,3.75-2.88-70.12-1.87-70.12-1.87a7.64,7.64,0,0,0,2.75,4,16.57,16.57,0,0,1,3.87,4Z"/><path class="cls-1" d="M208.13,501.15l9.25-38.75s-.37-1.13,1-1.13,2-13.2,2-13.2c6.67-2.85-55.58-8.54-77.87-3.23,0,0-1.8,11.63.87,13,4.2,2.15,14.18,43.23,13.5,43.31Z"/><path class="cls-1" d="M205.69,444.51l2.69-41.11s4-32.13,2.13-42-5-13.88-10.5-14.38-6.88,3.75-6.88,3.75-3.12,5.13-2.5,32.13S189,442.65,189,442.65h-3.63l-1-114.13a60.77,60.77,0,0,0-6.5-32.37c-8.5-16.25-14.5,12.62-14.5,12.62s-.37,17,0,22.75c.22,3.42-.57,40.05-.55,70.38,0,20.75.41,38.56,1.76,40.75h-8.67s-2.66-34.25-6-44.88-5.62-37-5.62-37,1-10.87,5.87-10.87c0,0,11.74-.25,12.82,28.13"/><path class="cls-1" d="M193.13,350.77a7.94,7.94,0,0,0-8.58-3.37"/><path class="cls-1" d="M1216.92,510.9l1.34-4.33s4.83-.67,5-2.84,3.66-28.83,3.66-28.83-1-.83-5-1-26.16,0-26.16,0,.66,3.33,0,3.5,15.58-.33,15.58-.33l.75,33.83h-41.83l-1.17-30.67s.17-1.33,2.5-1.33,24.17-1.5,24.17-1.5"/><path class="cls-1" d="M1217.59,473.59l10.92-20.94a24.29,24.29,0,0,0,3.43-10.75,82.76,82.76,0,0,0,0-9,19.37,19.37,0,0,0,1.19-5.69c0-2.56,7.19-17.37,7.19-17.37l7.37-16a166.23,166.23,0,0,0,2.25-17.63c.5-8.31-1.25-8.56-1.25-8.56s-1.93-2.38-2.68,5.19-1.13,10.37-1.13,10.37-.75,7.25-1.19,8.94-4.25,9.81-4.25,9.81-5.75,12.31-6.5,16.13a20.31,20.31,0,0,1-3.12,7.06,28,28,0,0,0-3.94,6.37c-1.44,3.44-3.69,3.82-3.69,3.82l-4.06,4.81s-3.25,3.94-3.81,7.06,1.5.19-2.13,25.94h-13.62A36.34,36.34,0,0,1,1200,469a6.08,6.08,0,0,0,.43-2s.88-5,1.57-5.94.5-5.68.5-5.68.31-6.63,3.87-10.82a40,40,0,0,1,.38-5.43c.31-1.13,3-7.88,3-7.88a18,18,0,0,0,1.68-6.81,47.54,47.54,0,0,1,.5-9.75c.69-3.56,2-7.19,2.25-7.19s1.75-.44,1.19,2.75-1.06,6.44-1.06,6.44l.19,7.56s-.5,7.38-1.19,8.81-.56,5.19-.56,5.19.06,7.69.5,9.13a15,15,0,0,0,1.09,2.62"/><path class="cls-1" d="M1184.76,477.65s-.57-1.81,1.06-1.5,0-2.94,0-2.94a.93.93,0,0,1,1.44-.31c.87.69.37-2.94.37-2.94s-1.26-.25-1.41-1.12-2.34-1.75-2.34-1.75a1.13,1.13,0,0,1-.31-1.38c.31-1-4.38-2.31-5.06-4.37s-1.69-.75-1.69-3.57a6.5,6.5,0,0,0-4.19-2.37s-1.31-1.38-1.25-2-1.94-.69-1.94-.69h-1.31s.11-2,1-2-1.52-2.37.48-4.56c0,0,.31-1.94-1.44-1.94s1.94-1.44,2.31-.37,2.19.62,2.13,1.06-.19,4.44.37,4.12,2.38,1.5,1.88,2.25,3,3.19,3.69,2.5-.13-3.68-.13-3.68-1.12-4.32-4.12-5.44.12-1.2.12-1.2,1.13-2.11-2.5-3.86-3.81-1.13-3.81-1.13l-2.06-1.12s-4.25,1.75-4.25.62,1.93-2.31,1.93-2.31h4.44s1,1.44,1.81.62a12.06,12.06,0,0,0,1.69-2.62s2.83-1.31,3.14-.75.61-2.25,1.42-2.25,4.25-1,4.69,1,2.06.44,2.06.44,1.44.87,1.13,1.5a10.75,10.75,0,0,0-.56,2.12s2.75-1.06,2.75-.31a7.13,7.13,0,0,1-.82,2.25l1.19.56s3.81-1.94,3.94-2.62a11.18,11.18,0,0,0,0-2.07s.69-.87,1.25-.75,1.31-2.56,3.44-1.25-2.07,5.07-2.07,5.07l-5.43,5.06s.87.12.31.69-2.25,1.87-2.25,1.87-.69,3.25,0,3.31-.44,3.5-.44,3.5,1.44.57,1.44,1.25,1.44,1.82,1.06,2.69,1.19.56,1.19.56,1.62,1.07,1.37,1.75,2.07,2.32,2.07,2.32,2.18,2.81,1.75,4.06.37,3.5.37,3.5.94,4.56-.75,5.12.88,1.56.88,1.56h.62"/><path class="cls-1" d="M1160.09,510.07a1.5,1.5,0,0,1,1.67-.86c1.18.25,1.43-3.37,1.43-3.37h-36.75v4.23Z"/><path class="cls-1" d="M1159.57,505.15l6.19-25.81s1.18-1.88,2.5-1.69l.83-10.25s-36.65-2.44-42.33,0l-.32,37.75Z"/><path class="cls-1" d="M1156.31,466.72s1.88-1.38,1.57-2.38.67-7,0-7.19-.36-5.56-3.42-6.19-5.5-.69-5.44.56c0,0-3.13,5.5-2.19,7.32l.13,2.62s4.43.75,4.93,4.25l-11.81-.06s2.31-4.31,5.06-3.94,1.32-.19,1.32-.19l-1.94-.68s2.75-9.88-3.63-10.94-6.87,12.69-6.87,12.69l-1.25,3.06s-4.75-3.37-5.75,1.63"/><path class="cls-1" d="M1149.07,451.52s1.12-16.56.12-19.68-1.17-10.94-6.58-11-6.1,7.93-6.1,7.93l-.65,24.63s0-29.88-4.23-30.88-4.56,1.63-4.56,1.63l-.31,43.25"/><polygon class="cls-2" points="1040.42 510.07 1040.42 406.9 1045.26 403.73 1126.76 404.73 1126.44 510.07 1045.59 510.07 1040.42 510.07 1040.42 406.9 1045.26 403.73 1045.59 510.07 1040.42 510.07"/><path class="cls-2" d="M761.42,507.57l-3.16-62,11-1.5s38.16-4.17,56.5,0l6.83,64.46h-71.5Z"/><polygon class="cls-2" points="856.09 507.73 849.09 433.73 918.26 432.9 928.76 507.73 856.09 507.73"/><polygon class="cls-2" points="852.76 507.73 846.92 438.07 849.09 433.73 856.09 507.73 852.76 507.73"/><path class="cls-2" d="M936.76,438.07l11,69.66,71.12.17-13.79-73.17S939.42,435.4,936.76,438.07Z"/><polygon class="cls-2" points="934.92 440.57 936.76 438.07 947.76 507.73 945.26 507.73 934.92 440.57"/><polygon class="cls-2" points="625.92 438.07 692.09 439.23 692.09 508.36 623.76 508.25 625.92 438.07"/><path class="cls-2" d="M535.59,435.57l12.33-1s45.67-1.17,55.17,0l-2.33,73.79-72-.27Z"/><polygon class="cls-2" points="496.42 443.73 495.87 449.85 490.59 508.03 431.76 507.93 440.42 443.73 496.42 443.73"/><polygon class="cls-2" points="498.09 450.9 492.76 508.03 490.59 508.03 495.87 449.85 498.09 450.9"/><path d="M452.63,456.13l1.73.05-.09,3.27,2,.06.09-3.27,1.73.05-.24,8.56-1.73-.05.11-3.8-2-.06-.11,3.8-1.73-.05Z"/><path d="M464.31,456.46l0,1.41-1.87-.05-.2,7.15-1.72-.05.2-7.15-1.87,0,0-1.41Z"/><path d="M465.09,456.48l2.57.07,1.06,6.08h0l1.4-6,2.56.07-.24,8.56-1.58,0,.18-6.84h0l-1.71,6.79-1.34,0-1.34-6.88h0l-.19,6.83-1.58,0Z"/><path d="M473.7,465.28l.23-8.56,1.73,0-.2,7.15,3.06.08,0,1.42Z"/><path d="M545.52,453.22c0-.64-.28-1.44-1-1.44s-1.18.86-1.18,3,.18,3.36,1.18,3.36a1.25,1.25,0,0,0,1.07-1.36v-.88h-1.14v-1.27h2.8v4.61H546v-.79h0a1.92,1.92,0,0,1-1.81.95c-2.12,0-2.54-1.58-2.53-4.55s.68-4.35,2.89-4.34c1.89,0,2.66,1,2.66,2.71Z"/><path d="M553.18,450.69v1.42h-3.06v2H553v1.42h-2.88v2.3h3.18v1.42h-4.9l0-8.57Z"/><path d="M555.55,456.59v.25c0,.8.22,1.32,1.13,1.32a1,1,0,0,0,1-1.05c0-.78-.4-1.07-1.54-1.47-1.53-.53-2.24-1.17-2.23-2.59a2.35,2.35,0,0,1,2.65-2.52c1.54,0,2.65.67,2.65,2.31v.24h-1.66c0-.81-.27-1.27-.93-1.28a.88.88,0,0,0-1,1c0,.53.15.85.88,1.16l1.33.58a2.2,2.2,0,0,1,1.63,2.27c0,1.81-1.11,2.63-3,2.62s-2.72-.92-2.72-2.5v-.35Z"/><path d="M565.41,450.72v1.42h-1.87l0,7.15h-1.73l0-7.15h-1.87v-1.41Z"/><path d="M567.16,450.72h2.14l2.25,8.57h-1.8l-.39-1.81h-2.28l-.4,1.81h-1.8Zm.22,5.34h1.68l-.82-3.86h0Z"/><path d="M572.15,459.3l0-8.56h1.73l0,7.15h3.06v1.42Z"/><path d="M581.85,450.76v1.41H580l0,7.15h-1.73l0-7.15h-1.87v-1.41Z"/><path d="M541.69,465.07h3a2.28,2.28,0,0,1,2.35,2.58c0,1.77-1.1,2.57-2.73,2.57h-.92v3.41h-1.73Zm1.72,3.87h.77c.68,0,1.15-.41,1.15-1.28s-.33-1.32-1.19-1.33h-.72Z"/><path d="M547.92,465.08h3.19a2,2,0,0,1,2.27,2.21c0,1.14-.46,1.91-1.43,2.11v0c1.18.16,1.36.81,1.38,2.62,0,.9,0,1.37.38,1.54v.07h-1.87a1.63,1.63,0,0,1-.22-.9l0-1.64c0-.67-.32-1.08-1-1.08h-.92v3.62H547.9Zm1.72,3.75h.72a1.13,1.13,0,0,0,1.3-1.28,1.07,1.07,0,0,0-1.2-1.19h-.82Z"/><path d="M554.66,473.66l0-8.56h1.72l0,8.56Z"/><path d="M559.68,465.11l2.07,5.87h0v-5.87h1.58l0,8.56h-2l-2.1-6h0l0,6h-1.58l0-8.57Z"/><path d="M568.23,468c0-1.25-.25-1.79-1-1.79s-1.08.87-1.09,3.29c0,2.59.36,3.06,1.1,3.06s1.08-.32,1.08-2.16H570c0,1.85-.46,3.44-2.73,3.44-2.59,0-2.91-1.86-2.9-4.46s.33-4.45,2.92-4.44S570,466.77,570,468Z"/><path d="M571.08,473.7l0-8.57h1.73l0,8.56Z"/><path d="M574.12,465.14H577c1.41,0,2.43.53,2.43,2.17a1.8,1.8,0,0,1-1.3,1.87v0a1.82,1.82,0,0,1,1.55,2c0,1.34-.66,2.5-2.68,2.5H574.1Zm1.72,3.52h.49c.94,0,1.38-.32,1.38-1.13s-.39-1.11-1.25-1.11h-.62Zm0,3.78h.67c.83,0,1.39-.3,1.39-1.29s-.56-1.29-1.31-1.29h-.75Z"/><path d="M580.77,473.72l0-8.57h1.73l0,7.15h3.06v1.42Z"/><path d="M591.13,465.18v1.41h-3.06v2h2.88V470h-2.88v2.3h3.17v1.41h-4.91l0-8.56Z"/><path d="M593.49,471.07v.25c0,.81.23,1.32,1.14,1.33a1,1,0,0,0,1-1.06c0-.78-.39-1.07-1.53-1.46-1.53-.53-2.24-1.17-2.24-2.6a2.35,2.35,0,0,1,2.66-2.51c1.54,0,2.65.66,2.65,2.31v.24h-1.66c0-.8-.27-1.27-.93-1.27a.89.89,0,0,0-1,1c0,.53.16.85.89,1.17l1.33.58a2.17,2.17,0,0,1,1.62,2.27c0,1.81-1.11,2.62-3,2.62s-2.72-.92-2.71-2.5v-.35Z"/><path d="M634.55,462.24l-.11,6.16c0,1.83-.87,2.56-2.62,2.53s-2.24-1.21-2.22-2.55V468l1.58,0v.26c0,.91.12,1.35.75,1.36s.77-.42.79-1.33l.11-6.12Z"/><path d="M637.35,462.29l2.13,0,2.12,8.6-1.8,0-.36-1.82-2.28,0-.43,1.8-1.8,0Zm.13,5.34,1.68,0-.76-3.86h0Z"/><path d="M643.52,462.4l1.1,6.35h0l1.39-6.31,1.78,0L645.7,471l-2.21,0-1.82-8.59Z"/><path d="M649.68,462.51l2.14,0,2.11,8.6-1.79,0-.37-1.82-2.28,0-.42,1.8-1.8,0Zm.14,5.34,1.68,0-.76-3.87h0Z"/><path d="M656,468.51v.25c0,.8.21,1.32,1.12,1.34a1,1,0,0,0,1-1c0-.78-.38-1.07-1.51-1.49-1.53-.55-2.22-1.2-2.2-2.63a2.35,2.35,0,0,1,2.7-2.47c1.53,0,2.63.71,2.61,2.35v.24l-1.65,0c0-.8-.26-1.28-.92-1.29a.89.89,0,0,0-1,1c0,.53.14.86.87,1.18l1.32.6a2.18,2.18,0,0,1,1.59,2.29c0,1.81-1.15,2.61-3,2.58s-2.71-1-2.68-2.54v-.35Z"/><path d="M664.52,465.66c0-1.25-.22-1.79-1-1.81s-1.09.86-1.14,3.28c0,2.59.31,3.07,1,3.08s1.09-.3,1.12-2.15l1.73,0c0,1.85-.52,3.43-2.78,3.39-2.59,0-2.89-1.89-2.84-4.5s.4-4.44,3-4.39,2.62,1.85,2.6,3.1Z"/><path d="M667.36,462.82l3.19.05a2,2,0,0,1,2.24,2.25c0,1.14-.49,1.9-1.47,2.09v0c1.18.18,1.34.83,1.34,2.64,0,.9,0,1.37.35,1.54v.07l-1.87,0a1.74,1.74,0,0,1-.2-.9l0-1.65c0-.67-.3-1.08-1-1.09l-.92,0-.07,3.62-1.72,0Zm1.66,3.77h.72a1.12,1.12,0,0,0,1.32-1.26,1.07,1.07,0,0,0-1.18-1.21h-.82Z"/><path d="M674,471.5l.15-8.56,1.73,0-.15,8.56Z"/><path d="M677.12,463l3,.05a2.27,2.27,0,0,1,2.3,2.61c0,1.78-1.14,2.56-2.77,2.53h-.92l-.06,3.41-1.73,0Zm1.66,3.9.77,0c.68,0,1.16-.39,1.17-1.27s-.31-1.32-1.17-1.34h-.72Z"/><path d="M688.36,463.19l0,1.41-1.87,0-.13,7.15-1.72,0,.12-7.15-1.87,0,0-1.42Z"/><path d="M780.37,460.69l1.54,6.26h0l.94-6.39,1.79-.09-1.52,8.65-2.22.12-2.41-8.45Z"/><path d="M785.84,469l-.45-8.55,1.72-.09.45,8.55Z"/><path d="M788.48,460.27l2.83-.15c2.39-.13,2.91,1.49,3,4,.16,3-.42,4.43-2.7,4.55l-2.72.14Zm2.11,7.19.76,0c1.2-.06,1.4-.83,1.28-3.16-.1-1.94-.31-2.92-1.63-2.85l-.73,0Z"/><path d="M800.05,459.66l.08,1.41-3.06.16.11,2,2.87-.15.08,1.41-2.88.15.12,2.3,3.18-.17.07,1.42-4.9.25-.45-8.55Z"/><path d="M803.76,459.3c2.59-.14,3,1.69,3.14,4.29s-.09,4.46-2.68,4.6-3-1.7-3.14-4.3S801.17,459.43,803.76,459.3Zm.4,7.62c1-.06,1.14-.94,1-3.24s-.34-3.17-1.35-3.11-1.14.95-1,3.23S803.14,467,804.16,466.92Z"/><path d="M859.45,440.13l.14,6c0,.85.23,1.48,1,1.46s1-.66,1-1.51l-.13-6,1.72,0,.14,6a2.44,2.44,0,0,1-2.68,2.81c-1.4,0-2.74-.4-2.79-2.69l-.13-6Z"/><path d="M865.81,445.88v.25c0,.8.25,1.31,1.16,1.29a1,1,0,0,0,1-1.08c0-.78-.42-1.06-1.57-1.43-1.54-.49-2.26-1.11-2.3-2.54a2.35,2.35,0,0,1,2.6-2.57c1.53,0,2.66.6,2.7,2.24v.24l-1.65,0c0-.81-.3-1.27-1-1.25a.87.87,0,0,0-1,1c0,.53.17.85.91,1.15l1.34.54a2.19,2.19,0,0,1,1.68,2.23c0,1.81-1,2.65-2.91,2.7s-2.74-.86-2.78-2.44v-.35Z"/><path d="M875.3,439.77l0,1.42-3.06.07.05,2,2.87-.06,0,1.41-2.88.07,0,2.3,3.18-.07,0,1.41-4.91.11-.19-8.56Z"/><path d="M876.28,439.75l3.19-.07a2,2,0,0,1,2.33,2.16,1.87,1.87,0,0,1-1.38,2.14v0c1.18.13,1.37.77,1.44,2.59,0,.89.09,1.36.42,1.52v.07l-1.87,0a1.58,1.58,0,0,1-.24-.89l-.08-1.64c0-.67-.35-1.07-1.05-1.06l-.92,0,.08,3.62-1.72,0Zm1.81,3.7h.72c.83,0,1.29-.39,1.27-1.31a1.06,1.06,0,0,0-1.23-1.16H878Z"/><path d="M886.36,443.92l0,1.41-3.38.08,0-1.42Z"/><path d="M862.94,454.45l0,1.42-3.06.07.05,2,2.88-.06,0,1.41-2.88.07,0,2.3,3.18-.07,0,1.41-4.9.11-.2-8.56Z"/><path d="M863.57,454.44l1.9,0,1.17,2.74,1-2.79,1.88,0-1.9,4.27,2.23,4.28-1.94.05-1.3-2.88L865.48,463l-1.89,0,2-4.37Z"/><path d="M870.37,454.29l3-.07a2.27,2.27,0,0,1,2.41,2.51,2.4,2.4,0,0,1-2.67,2.64l-.92,0,.07,3.42-1.72,0Zm1.81,3.83.77,0c.68,0,1.14-.43,1.12-1.3s-.37-1.32-1.23-1.3l-.72,0Z"/><path d="M881.38,454l0,1.42-3.06.06,0,2,2.87-.07,0,1.42-2.88.06.05,2.31,3.18-.07,0,1.41-4.91.11-.19-8.56Z"/><path d="M882.36,454l3.19-.07a2,2,0,0,1,2.33,2.15c0,1.14-.41,1.92-1.38,2.15v0c1.18.13,1.37.77,1.44,2.58,0,.9.09,1.37.42,1.53v.07l-1.87,0a1.6,1.6,0,0,1-.24-.89l-.08-1.64c0-.67-.35-1.08-1-1.06l-.92,0,.08,3.62-1.73,0Zm1.81,3.7h.72a1.13,1.13,0,0,0,1.27-1.32,1.07,1.07,0,0,0-1.23-1.16l-.81,0Z"/><path d="M889.31,462.43l-.19-8.56,1.72,0,.2,8.56Z"/><path d="M896.91,453.69l0,1.42-3.05.07,0,2,2.88-.06,0,1.41-2.88.07,0,2.3,3.18-.07,0,1.41-4.9.11-.19-8.56Z"/><path d="M899.89,453.63l2.22,5.81h0l-.13-5.86,1.58,0,.19,8.56-2,0-2.25-5.95h0l.13,6-1.58,0-.19-8.56Z"/><path d="M908.51,456.33c0-1.25-.3-1.78-1.08-1.77s-1.06.9-1,3.32c.06,2.59.43,3.05,1.17,3s1.07-.35,1-2.2l1.73,0c0,1.85-.38,3.46-2.65,3.51-2.59.05-3-1.79-3-4.39s.22-4.45,2.81-4.51,2.69,1.75,2.72,3Z"/><path d="M916,453.27l0,1.41-3.06.07,0,2,2.88-.07,0,1.42-2.88.06.05,2.3,3.18-.07,0,1.42-4.9.11-.19-8.57Z"/><path d="M949.22,460.57l3-.13a2.28,2.28,0,0,1,2.46,2.47c.08,1.77-1,2.62-2.61,2.69l-.92,0,.14,3.41-1.72.08Zm1.89,3.8.77,0c.68,0,1.13-.45,1.1-1.33s-.4-1.3-1.26-1.26l-.72,0Z"/><path d="M955.44,460.3l1.73-.07.14,3.27,2-.09-.14-3.27,1.73-.07.36,8.55-1.72.08-.16-3.8-2,.09.17,3.8-1.73.07Z"/><path d="M964.83,459.73c2.59-.11,3,1.72,3.11,4.32s-.14,4.46-2.72,4.57-3-1.72-3.11-4.32S962.24,459.84,964.83,459.73Zm.33,7.62c1,0,1.15-.92,1.05-3.22s-.3-3.17-1.32-3.13-1.15.94-1,3.23S964.14,467.4,965.16,467.35Z"/><path d="M973.5,459.53l.06,1.41-1.87.08.3,7.14-1.72.08L970,461.1l-1.87.08-.06-1.42Z"/><path d="M977,459.21c2.58-.11,3,1.72,3.1,4.32s-.13,4.46-2.72,4.57-3-1.72-3.11-4.32S974.38,459.32,977,459.21Zm.32,7.62c1,0,1.15-.92,1.05-3.23s-.3-3.16-1.32-3.12-1.15.94-1,3.23S976.27,466.87,977.29,466.83Z"/><path d="M982.55,465v.25c0,.81.28,1.31,1.19,1.27a1,1,0,0,0,1-1.1c0-.77-.44-1-1.6-1.39-1.55-.46-2.29-1.07-2.35-2.49a2.35,2.35,0,0,1,2.54-2.63c1.54-.07,2.68.54,2.75,2.18v.24l-1.66.07c0-.8-.32-1.25-1-1.23a.89.89,0,0,0-.94,1c0,.53.19.85.93,1.12l1.36.52a2.18,2.18,0,0,1,1.72,2.2c.08,1.81-1,2.67-2.85,2.75s-2.76-.79-2.83-2.38l0-.34Z"/><path d="M987.13,458.94l1.72-.07.14,3.27,2-.09-.14-3.27,1.72-.07.37,8.55-1.73.08-.16-3.8-2,.08.16,3.8-1.72.08Z"/><path d="M996.52,458.37c2.59-.11,3,1.72,3.1,4.32s-.13,4.46-2.72,4.57-3-1.72-3.1-4.32S993.93,458.48,996.52,458.37Zm.33,7.62c1,0,1.14-.93,1-3.23s-.31-3.16-1.33-3.12-1.15.94-1.05,3.23S995.83,466,996.85,466Z"/><path d="M1000.46,458.37l3-.13a2.27,2.27,0,0,1,2.46,2.46,2.4,2.4,0,0,1-2.61,2.69l-.92,0,.14,3.42-1.72.07Zm1.89,3.79.77,0c.68,0,1.13-.46,1.09-1.33s-.39-1.3-1.25-1.27l-.72,0Z"/><path d="M1055.12,443v-8.57h1.72V443Z"/><path d="M1058.13,443v-8.56h1.73v7.15h3.06V443Z"/><path d="M1063.69,443v-8.56h1.73v7.15h3V443Z"/><path d="M1070.87,434.44v6c0,.85.21,1.48,1,1.48s1-.63,1-1.48v-6h1.73v6a2.45,2.45,0,0,1-2.74,2.76c-1.4,0-2.73-.47-2.73-2.76v-6Z"/><path d="M1077.09,440.34v.25c0,.8.23,1.32,1.14,1.32a1,1,0,0,0,1-1.06c0-.78-.39-1.06-1.53-1.46-1.54-.53-2.24-1.16-2.24-2.59a2.35,2.35,0,0,1,2.65-2.52c1.53,0,2.65.66,2.65,2.31v.24h-1.66c0-.8-.27-1.27-.93-1.27a.89.89,0,0,0-1,1c0,.52.16.85.89,1.16l1.33.58a2.18,2.18,0,0,1,1.63,2.27c0,1.81-1.1,2.62-3,2.62s-2.73-.91-2.72-2.5v-.34Z"/><path d="M1087,434.45v1.42h-1.88V443h-1.73v-7.15h-1.87v-1.42Z"/><path d="M1087.69,434.45h3.19a2,2,0,0,1,2.28,2.2c0,1.14-.46,1.91-1.43,2.11v0c1.18.16,1.36.8,1.38,2.61,0,.9.06,1.37.38,1.54V443h-1.87a1.62,1.62,0,0,1-.21-.9l-.05-1.64c0-.67-.32-1.08-1-1.08h-.92V443h-1.72Zm1.73,3.75h.72a1.12,1.12,0,0,0,1.29-1.28,1.06,1.06,0,0,0-1.2-1.19h-.81Z"/><path d="M1096,434.46h2.14l2.26,8.57h-1.8l-.4-1.81H1096l-.39,1.81h-1.8Zm.23,5.34h1.68l-.83-3.85h0Z"/><path d="M1105.39,434.47v1.41h-1.87V443h-1.72v-7.15h-1.87v-1.42Z"/><path d="M1108.87,434.3c2.59,0,2.91,1.85,2.91,4.45s-.32,4.45-2.92,4.45-2.91-1.85-2.91-4.45S1106.28,434.3,1108.87,434.3Zm0,7.63c1,0,1.18-.88,1.18-3.18s-.16-3.18-1.18-3.18-1.19.89-1.19,3.18S1107.85,441.93,1108.87,441.93Z"/><path d="M1112.81,434.47H1116a2,2,0,0,1,2.27,2.21c0,1.14-.45,1.91-1.42,2.11v0c1.17.16,1.35.81,1.37,2.62,0,.9.06,1.37.39,1.54V443h-1.87a1.65,1.65,0,0,1-.22-.9l0-1.65c0-.67-.32-1.08-1-1.08h-.92V443h-1.73Zm1.72,3.74h.72c.83,0,1.3-.35,1.3-1.28a1.07,1.07,0,0,0-1.2-1.19h-.82Z"/><polygon class="cls-2" points="628.26 307.15 623.26 394.4 703.01 396.37 704.51 309.4 628.26 307.15"/><polygon class="cls-2" points="628.26 307.15 624.76 310.4 620.75 396.1 623.26 394.4 628.26 307.15"/><polygon class="cls-2" points="916.26 315.9 986.76 317.4 992.26 394.9 917.51 394.9 916.26 315.9"/><polygon class="cls-2" points="916.26 315.9 913.26 317.4 916.26 394.9 920.01 394.9 916.26 315.9"/><path d="M640.34,332.13l2.14,0,2.09,8.61-1.8,0-.36-1.81-2.27-.05-.44,1.8-1.8,0Zm.12,5.34,1.68,0-.75-3.86h0Z"/><path d="M647.34,332.27l2,5.91h0l.12-5.87,1.58,0-.17,8.56-2,0-2-6h0l-.12,6-1.59,0,.18-8.56Z"/><path d="M652.14,340.93l.18-8.56,1.72,0-.17,8.56Z"/><path d="M655.37,332.43l2.56.05,1.1,6.07h0l1.35-6,2.56.06-.18,8.56-1.58,0,.14-6.84h0l-1.66,6.8-1.35,0-1.38-6.87h0l-.13,6.84-1.59,0Z"/><path d="M665.87,332.64l2.14.05,2.09,8.61-1.8,0-.36-1.82-2.27-.05-.44,1.81-1.79,0ZM666,338l1.68,0-.75-3.87h0Z"/><path d="M675.23,332.83l0,1.42-1.87,0-.14,7.15-1.73,0,.14-7.14-1.87,0,0-1.42Z"/><path d="M675.89,341.41l.17-8.56,1.73,0-.18,8.57Z"/><path d="M681.81,332.8c2.59.05,2.88,1.9,2.82,4.51s-.41,4.44-3,4.39-2.88-1.91-2.82-4.51S679.22,332.75,681.81,332.8Zm-.16,7.62c1,0,1.21-.85,1.26-3.15s-.11-3.18-1.13-3.2-1.2.86-1.25,3.15S680.64,340.4,681.65,340.42Z"/><path d="M687.73,333.09l2,5.9h0l.12-5.86,1.59,0-.18,8.56-2,0-2-6h0l-.12,6-1.58,0,.17-8.56Z"/><polyline class="cls-1" points="1289.68 752.64 1289.69 158.97 91.5 158.97 91.5 754.47"/><path d="M928.38,325.74l2.89,0c1.41,0,2.43.55,2.42,2.19a1.79,1.79,0,0,1-1.31,1.86v0a1.81,1.81,0,0,1,1.54,2c0,1.34-.68,2.5-2.69,2.49l-2.92,0Zm1.7,3.53h.49c.95,0,1.38-.31,1.39-1.11s-.39-1.12-1.24-1.13h-.63Zm0,3.78h.67c.83,0,1.39-.29,1.4-1.28s-.55-1.29-1.31-1.3h-.74Z"/><path d="M936.67,325.8l0,6c0,.85.19,1.49,1,1.49s1-.63,1-1.48l0-6h1.73l0,6a2.44,2.44,0,0,1-2.75,2.73c-1.4,0-2.73-.48-2.71-2.78l0-6Z"/><path d="M942.85,331.74V332c0,.81.22,1.32,1.13,1.33a1,1,0,0,0,1-1.05c0-.78-.39-1.07-1.53-1.47-1.53-.54-2.23-1.18-2.22-2.61a2.35,2.35,0,0,1,2.67-2.5c1.54,0,2.65.68,2.63,2.33v.24l-1.65,0c0-.8-.27-1.27-.93-1.28a.89.89,0,0,0-1,1c0,.53.15.86.88,1.17l1.33.59a2.18,2.18,0,0,1,1.61,2.28c0,1.81-1.12,2.62-3,2.6s-2.71-.93-2.7-2.51v-.35Z"/><path d="M947.75,334.45l.07-8.56h1.72l-.06,8.57Z"/><path d="M952.82,325.93l2,5.88h0l0-5.86h1.58l-.06,8.56h-2l-2.06-6h0l0,6h-1.58l.07-8.57Z"/><path d="M962.5,326v1.42l-3.06,0v2l2.87,0v1.42l-2.87,0,0,2.3,3.18,0,0,1.42-4.9,0,.07-8.56Z"/><path d="M964.83,331.91v.25c0,.81.22,1.32,1.13,1.33a1,1,0,0,0,1-1.05c0-.78-.39-1.07-1.52-1.47-1.54-.54-2.24-1.18-2.23-2.61a2.35,2.35,0,0,1,2.67-2.5c1.54,0,2.65.68,2.63,2.33v.24l-1.65,0c0-.8-.27-1.27-.93-1.28a.89.89,0,0,0-1,1c0,.53.15.85.88,1.17l1.33.59a2.18,2.18,0,0,1,1.61,2.28c0,1.81-1.12,2.62-3,2.6s-2.72-.93-2.71-2.51v-.35Z"/><path d="M971.06,332v.25c0,.8.22,1.32,1.13,1.33a1,1,0,0,0,1-1.05c0-.78-.39-1.07-1.53-1.47-1.53-.54-2.23-1.18-2.22-2.61a2.35,2.35,0,0,1,2.67-2.5c1.53,0,2.64.68,2.63,2.32v.24h-1.65c0-.8-.27-1.27-.93-1.28a.89.89,0,0,0-1,1c0,.53.15.85.88,1.17l1.32.59a2.18,2.18,0,0,1,1.62,2.28c0,1.81-1.13,2.61-3,2.6s-2.71-.93-2.7-2.52V332Z"/></g></svg>
